<svg width="21" height="18" viewBox="0 0 21 18" fill="none" xmlns="http://www.w3.org/2000/svg">
<path d="M7.8125 0.59375C8.59375 0.59375 9.15625 0.65625 9.5 0.78125C9.84375 0.890625 10.0156 1.14062 10.0156 1.53125C10.0156 1.75 9.92188 2.04688 9.73438 2.42188C9.5625 2.78125 9.32031 3.32031 9.00781 4.03906L6.125 11H7.46094C8.11719 11 8.53906 11.1562 8.72656 11.4688C8.91406 11.7812 9.01562 12.1328 9.03125 12.5234L9.26562 15.7109C9.3125 16.3828 9.10156 16.8359 8.63281 17.0703C8.16406 17.3047 7.02344 17.4219 5.21094 17.4219C3.94531 17.4219 3 17.375 2.375 17.2812C1.75 17.1719 1.34375 16.9922 1.15625 16.7422C0.96875 16.4922 0.882812 16.1484 0.898438 15.7109L1.0625 12.4062C1.09375 11.7188 1.14062 11.1484 1.20312 10.6953C1.26562 10.2266 1.42969 9.70312 1.69531 9.125L4.8125 2.1875C5.14062 1.5 5.47656 1.0625 5.82031 0.875C6.16406 0.6875 6.82812 0.59375 7.8125 0.59375ZM17.8906 0.59375C18.6719 0.59375 19.2344 0.65625 19.5781 0.78125C19.9219 0.890625 20.0938 1.14062 20.0938 1.53125C20.0938 1.75 20 2.04688 19.8125 2.42188C19.6406 2.78125 19.3984 3.32031 19.0859 4.03906L16.2031 11H17.5391C18.1953 11 18.6172 11.1562 18.8047 11.4688C18.9922 11.7812 19.0938 12.1328 19.1094 12.5234L19.3438 15.7109C19.3906 16.3828 19.1797 16.8359 18.7109 17.0703C18.2422 17.3047 17.1016 17.4219 15.2891 17.4219C14.0234 17.4219 13.0781 17.375 12.4531 17.2812C11.8281 17.1719 11.4219 16.9922 11.2344 16.7422C11.0469 16.4922 10.9609 16.1484 10.9766 15.7109L11.1406 12.4062C11.1719 11.7188 11.2188 11.1484 11.2812 10.6953C11.3438 10.2266 11.5078 9.70312 11.7734 9.125L14.8906 2.1875C15.2188 1.5 15.5547 1.0625 15.8984 0.875C16.2422 0.6875 16.9062 0.59375 17.8906 0.59375Z" fill="#FF7802"/>
</svg>
